<svg width="61" height="60" viewBox="0 0 61 60" fill="none" xmlns="http://www.w3.org/2000/svg">
<rect width="61" height="60" rx="10" fill="#DC362E"/>
<path d="M36.4545 35.4545V36.8182C36.4545 37.5415 36.1672 38.2352 35.6557 38.7467C35.1443 39.2581 34.4506 39.5455 33.7273 39.5455H18.7273C18.004 39.5455 17.3103 39.2581 16.7988 38.7467C16.2873 38.2352 16 37.5415 16 36.8182V23.1818C16 22.4585 16.2873 21.7648 16.7988 21.2533C17.3103 20.7419 18.004 20.4545 18.7273 20.4545H21.4545M29.1727 20.4545H33.7273C34.4506 20.4545 35.1443 20.7419 35.6557 21.2533C36.1672 21.7648 36.4545 22.4585 36.4545 23.1818V27.7364L37.8182 29.1L46 23.1818V36.8182M16 15L46 45" stroke="white" stroke-width="2" stroke-linecap="round" stroke-linejoin="round"/>
</svg>
