<svg width="33" height="33" viewBox="0 0 33 33" fill="none" xmlns="http://www.w3.org/2000/svg">
<path d="M21.0451 13.7727V16.5C21.0451 19.0316 20.0394 21.4595 18.2494 23.2497C16.4594 25.0398 14.0316 26.0455 11.5001 26.0455M11.5001 26.0455C8.96859 26.0455 6.54078 25.0398 4.75074 23.2497C2.96071 21.4595 1.95508 19.0316 1.95508 16.5V13.7727M11.5001 26.0455V31.5M6.04579 31.5H16.9544M11.5001 1.5C10.4152 1.5 9.37466 1.93101 8.60751 2.6982C7.84035 3.46539 7.40936 4.50593 7.40936 5.59091V16.5C7.40936 17.585 7.84035 18.6255 8.60751 19.3927C9.37466 20.1599 10.4152 20.5909 11.5001 20.5909C12.585 20.5909 13.6255 20.1599 14.3927 19.3927C15.1598 18.6255 15.5908 17.585 15.5908 16.5V5.59091C15.5908 4.50593 15.1598 3.46539 14.3927 2.6982C13.6255 1.93101 12.585 1.5 11.5001 1.5Z" stroke="white" stroke-width="2.5" stroke-linecap="round" stroke-linejoin="round"/>
</svg>
