<svg width="33" height="33" viewBox="0 0 33 33" fill="none" xmlns="http://www.w3.org/2000/svg">
<path d="M1.5 1.50412L31.5 31.5M12.4091 12.4117V16.5021C12.4098 17.3105 12.6501 18.1007 13.0997 18.7727C13.5492 19.4446 14.1879 19.9684 14.935 20.2777C15.682 20.5869 16.504 20.6679 17.2971 20.5104C18.0902 20.3529 18.8188 19.9639 19.3909 19.3926M20.5909 12.8753V5.59447C20.5919 4.5801 20.216 3.60154 19.536 2.84875C18.856 2.09597 17.9205 1.62266 16.9111 1.52072C15.9018 1.41878 14.8905 1.69547 14.0737 2.29709C13.2569 2.8987 12.6928 3.78232 12.4909 4.7764M23.3182 23.2511C21.987 24.6097 20.2802 25.5396 18.4167 25.9216C16.5533 26.3035 14.6182 26.1201 12.8598 25.3949C11.1013 24.6696 9.59967 23.4356 8.5475 21.8511C7.49534 20.2666 6.94063 18.4039 6.95455 16.5021V13.7752M26.0455 13.7752V16.5021C26.045 17.0644 25.9948 17.6256 25.8955 18.1791M16.5 26.0462V31.5M11.0455 31.5H21.9545" stroke="white" stroke-width="2.5" stroke-linecap="round" stroke-linejoin="round"/>
</svg>
