<svg width="60" height="60" viewBox="0 0 60 60" fill="none" xmlns="http://www.w3.org/2000/svg">
<rect width="60" height="60" rx="10" fill="#DC362E"/>
<path d="M15 15.0041L45 45M25.9091 25.9117V30.0021C25.9098 30.8105 26.1501 31.6007 26.5997 32.2727C27.0492 32.9446 27.6879 33.4684 28.435 33.7777C29.182 34.0869 30.004 34.1679 30.7971 34.0104C31.5902 33.8529 32.3188 33.4639 32.8909 32.8926M34.0909 26.3753V19.0945C34.0919 18.0801 33.716 17.1015 33.036 16.3488C32.356 15.596 31.4205 15.1227 30.4111 15.0207C29.4018 14.9188 28.3905 15.1955 27.5737 15.7971C26.7569 16.3987 26.1928 17.2823 25.9909 18.2764M36.8182 36.7511C35.487 38.1097 33.7802 39.0396 31.9167 39.4216C30.0533 39.8035 28.1182 39.6201 26.3598 38.8949C24.6013 38.1696 23.0997 36.9356 22.0475 35.3511C20.9953 33.7666 20.4406 31.9039 20.4545 30.0021V27.2752M39.5455 27.2752V30.0021C39.545 30.5644 39.4948 31.1256 39.3955 31.6791M30 39.5462V45M24.5455 45H35.4545" stroke="white" stroke-width="2" stroke-linecap="round" stroke-linejoin="round"/>
</svg>
