<svg width="60" height="60" viewBox="0 0 60 60" fill="none" xmlns="http://www.w3.org/2000/svg">
<rect width="60" height="60" rx="10" fill="#004899"/>
<path d="M39.09 27.2727V30C39.09 32.5316 38.0844 34.9595 36.2943 36.7497C34.5043 38.5398 32.0765 39.5455 29.545 39.5455M29.545 39.5455C27.0135 39.5455 24.5857 38.5398 22.7957 36.7497C21.0056 34.9595 20 32.5316 20 30V27.2727M29.545 39.5455V45M24.0907 45H34.9993M29.545 15C28.4601 15 27.4196 15.431 26.6524 16.1982C25.8853 16.9654 25.4543 18.0059 25.4543 19.0909V30C25.4543 31.085 25.8853 32.1255 26.6524 32.8927C27.4196 33.6599 28.4601 34.0909 29.545 34.0909C30.6299 34.0909 31.6704 33.6599 32.4376 32.8927C33.2047 32.1255 33.6357 31.085 33.6357 30V19.0909C33.6357 18.0059 33.2047 16.9654 32.4376 16.1982C31.6704 15.431 30.6299 15 29.545 15Z" stroke="white" stroke-width="2" stroke-linecap="round" stroke-linejoin="round"/>
</svg>
