<svg width="40" height="19" viewBox="0 0 40 19" fill="none" xmlns="http://www.w3.org/2000/svg">
<path d="M31.264 16.7693C32.4333 17.2704 33.7899 17.0092 34.6894 16.1097L37.715 13.0841C38.866 11.9331 38.8662 10.0671 37.7152 8.91612C27.9315 -0.867548 12.0688 -0.867743 2.28543 8.91567C1.13444 10.0667 1.13476 11.9326 2.28578 13.0837L5.31146 16.1104C6.21101 17.0099 7.5673 17.2712 8.73657 16.7701L12.796 15.0298C13.8463 14.5797 14.5654 13.5904 14.6688 12.4524L14.793 11.0798C14.9387 9.47734 16.2827 8.24921 17.8917 8.24923L22.1086 8.25122C23.7176 8.25124 25.0621 9.47684 25.2078 11.0793L25.3321 12.4517C25.4356 13.5898 26.1538 14.5805 27.2041 15.0306L31.264 16.7693Z" stroke="white" stroke-width="2.5" stroke-linecap="round" stroke-linejoin="round"/>
</svg>
