<svg width="60" height="60" viewBox="0 0 60 60" fill="none" xmlns="http://www.w3.org/2000/svg">
<rect width="60" height="60" rx="10" fill="#DC362E"/>
<path d="M41.465 35.7693C42.6343 36.2704 43.9908 36.0092 44.8903 35.1097L47.9159 32.0841C49.0669 30.9331 49.0671 29.0671 47.9161 27.9161C38.1325 18.1325 22.2698 18.1323 12.4864 27.9157C11.3354 29.0667 11.3357 30.9326 12.4867 32.0837L15.5124 35.1104C16.4119 36.0099 17.7682 36.2712 18.9375 35.7701L22.9969 34.0298C24.0472 33.5797 24.7663 32.5904 24.8698 31.4524L24.994 30.0798C25.1396 28.4773 26.4836 27.2492 28.0927 27.2492L32.3095 27.2512C33.9185 27.2512 35.263 28.4768 35.4087 30.0793L35.533 31.4517C35.6365 32.5898 36.3547 33.5805 37.405 34.0306L41.465 35.7693Z" stroke="white" stroke-width="2" stroke-linecap="round" stroke-linejoin="round"/>
</svg>
