<svg width="60" height="60" viewBox="0 0 60 60" fill="none" xmlns="http://www.w3.org/2000/svg">
<rect width="60" height="60" rx="10" fill="#004899"/>
<path d="M38 30.343H50M20.9606 37.1567L24.3111 41.3029C26.0577 43.4643 26.9309 44.545 27.6961 44.6626C28.3584 44.7645 29.0277 44.5279 29.4788 44.0324C30 43.46 30 42.0705 30 39.2916V21.3943C30 18.6154 30 17.2259 29.4788 16.6535C29.0277 16.1581 28.3584 15.9214 27.6961 16.0233C26.9309 16.1409 26.0577 17.2216 24.3111 19.383L20.9606 23.5292C20.6078 23.9659 20.4313 24.1842 20.213 24.3413C20.0196 24.4805 19.8029 24.584 19.5731 24.6469C19.3137 24.718 19.033 24.718 18.4717 24.718H15.625C14.1126 24.718 13.3564 24.718 12.7453 24.9198C11.5426 25.3171 10.5992 26.2606 10.2019 27.4632C10 28.0743 10 28.8305 10 30.343C10 31.8554 10 32.6116 10.2019 33.2227C10.5992 34.4253 11.5426 35.3688 12.7453 35.7661C13.3564 35.968 14.1126 35.968 15.625 35.968H18.4717C19.033 35.968 19.3137 35.968 19.5731 36.039C19.8029 36.1019 20.0196 36.2054 20.213 36.3446C20.4313 36.5017 20.6078 36.72 20.9606 37.1567Z" stroke="white" stroke-width="2" stroke-linecap="round" stroke-linejoin="round"/>
</svg>
