<svg width="32" height="31" viewBox="0 0 32 31" fill="none" xmlns="http://www.w3.org/2000/svg">
<path d="M5.33268 27.9344L7.87262 25.9024L7.89129 25.8881C8.42081 25.4644 8.68802 25.2507 8.98613 25.0984C9.25359 24.9617 9.5388 24.8622 9.83301 24.8018C10.1646 24.7338 10.5101 24.7338 11.2034 24.7338H25.6718C27.535 24.7338 28.4677 24.7338 29.18 24.3708C29.8072 24.0513 30.3175 23.5408 30.637 22.9136C31 22.2012 31 21.2696 31 19.4064V6.72864C31 4.86544 31 3.93245 30.637 3.22011C30.3175 2.59291 29.8062 2.08334 29.179 1.76376C28.466 1.40045 27.5338 1.40045 25.667 1.40045H6.33366C4.46682 1.40045 3.5327 1.40045 2.81966 1.76376C2.19245 2.08334 1.68289 2.59291 1.36331 3.22011C1 3.93315 1 4.86727 1 6.73411V25.8524C1 27.6286 1 28.5165 1.3641 28.9726C1.68074 29.3693 2.16073 29.6001 2.66829 29.5996C3.25192 29.5989 3.94573 29.0439 5.33268 27.9344Z" stroke="white" stroke-width="2" stroke-linecap="round" stroke-linejoin="round"/>
</svg>
