<svg width="41" height="18" viewBox="0 0 41 18" fill="none" xmlns="http://www.w3.org/2000/svg">
<path d="M31.764 16.2693C32.9333 16.7704 34.2899 16.5092 35.1894 15.6097L38.215 12.5841C39.366 11.4331 39.3662 9.56714 38.2152 8.41612C28.4315 -1.36755 12.5688 -1.36774 2.78543 8.41567C1.63444 9.56666 1.63476 11.4326 2.78578 12.5837L5.81146 15.6104C6.71101 16.5099 8.0673 16.7712 9.23657 16.2701L13.296 14.5298C14.3463 14.0797 15.0654 13.0904 15.1688 11.9524L15.293 10.5798C15.4387 8.97734 16.7827 7.74921 18.3917 7.74923L22.6086 7.75122C24.2176 7.75124 25.5621 8.97684 25.7078 10.5793L25.8321 11.9517C25.9356 13.0898 26.6538 14.0805 27.7041 14.5306L31.764 16.2693Z" stroke="white" stroke-width="2" stroke-linecap="round" stroke-linejoin="round"/>
</svg>
